<?xml version="1.0" encoding="UTF-8" standalone="no"?>
<!DOCTYPE svg PUBLIC "-//W3C//DTD SVG 1.1//EN" "http://www.w3.org/Graphics/SVG/1.1/DTD/svg11.dtd">
<svg width="100%" height="100%" viewBox="0 0 300 300" version="1.1" xmlns="http://www.w3.org/2000/svg" xmlns:xlink="http://www.w3.org/1999/xlink" xml:space="preserve" xmlns:serif="http://www.serif.com/" style="fill-rule:evenodd;clip-rule:evenodd;stroke-linejoin:round;stroke-miterlimit:2;">
    <g transform="matrix(0.5,0,0,0.5,-93.0399,129.712)">
        <clipPath id="_clip1">
            <rect x="339.511" y="57.696" width="449.323" height="282.879"/>
        </clipPath>
        <g clip-path="url(#_clip1)">
            <g transform="matrix(0.59399,0,0,0.59399,333.338,220.906)">
                <g opacity="0.5">
                    <g>
                        <g transform="matrix(0.866025,-0.5,1,0.57735,0,0)">
                            <rect x="-312" y="280.592" width="300" height="259.808" style="fill:rgb(33,192,181);"/>
                        </g>
                        <g transform="matrix(0.866025,-0.5,1,0.57735,-1.13687e-13,-30)">
                            <rect x="-312" y="280.592" width="300" height="259.808" style="fill:rgb(33,192,181);"/>
                        </g>
                        <g transform="matrix(0.866025,-0.5,1,0.57735,0,0)">
                            <rect x="-282" y="254.611" width="300" height="259.808" style="fill:rgb(0,250,229);"/>
                        </g>
                        <g transform="matrix(0.40883,0.235782,-0.688457,0.397914,457.585,143.57)">
                            <text x="-162px" y="391.785px" style="font-family:'FoundersGrotesk-BoldItalic', 'Founders Grotesk', sans-serif;font-weight:700;font-style:italic;font-size:332.554px;fill:white;">c<tspan x="9.883px " y="391.785px ">s</tspan>s</text>
                        </g>
                    </g>
                </g>
            </g>
            <g transform="matrix(0.59399,0,0,0.59399,545.67,98.3157)">
                <g opacity="0.5">
                    <g>
                        <g transform="matrix(0.866025,-0.5,1,0.57735,0,0)">
                            <rect x="-312" y="280.592" width="300" height="259.808" style="fill:rgb(33,192,181);"/>
                        </g>
                        <g transform="matrix(0.866025,-0.5,1,0.57735,-1.13687e-13,-30)">
                            <rect x="-312" y="280.592" width="300" height="259.808" style="fill:rgb(33,192,181);"/>
                        </g>
                        <g transform="matrix(0.866025,-0.5,5.55112e-17,1.1547,0,0)">
                            <rect x="312" y="514.419" width="300" height="25.981" style="fill:rgb(54,171,161);"/>
                        </g>
                        <g transform="matrix(0.866025,0.5,-5.55112e-17,1.1547,0,0)">
                            <rect x="12" y="244.219" width="300" height="25.981" style="fill:rgb(10,215,198);"/>
                        </g>
                        <g transform="matrix(0.866025,-0.5,1,0.57735,0,0)">
                            <rect x="-282" y="254.611" width="300" height="259.808" style="fill:rgb(0,250,229);"/>
                        </g>
                        <g transform="matrix(0.40883,0.235782,-0.688457,0.397914,457.585,143.57)">
                            <text x="-162px" y="391.785px" style="font-family:'FoundersGrotesk-BoldItalic', 'Founders Grotesk', sans-serif;font-weight:700;font-style:italic;font-size:332.554px;fill:white;">c<tspan x="9.883px " y="391.785px ">s</tspan>s</text>
                        </g>
                    </g>
                </g>
            </g>
            <g transform="matrix(0.59399,0,0,0.59399,758.002,-24.2744)">
                <g opacity="0.5">
                    <g>
                        <g transform="matrix(0.866025,-0.5,1,0.57735,0,0)">
                            <rect x="-312" y="280.592" width="300" height="259.808" style="fill:rgb(33,192,181);"/>
                        </g>
                        <g transform="matrix(0.866025,-0.5,1,0.57735,-1.13687e-13,-30)">
                            <rect x="-312" y="280.592" width="300" height="259.808" style="fill:rgb(33,192,181);"/>
                        </g>
                        <g transform="matrix(0.866025,0.5,-5.55112e-17,1.1547,0,0)">
                            <rect x="12" y="244.219" width="300" height="25.981" style="fill:rgb(10,215,198);"/>
                        </g>
                        <g transform="matrix(0.866025,-0.5,1,0.57735,0,0)">
                            <rect x="-282" y="254.611" width="300" height="259.808" style="fill:rgb(0,250,229);"/>
                        </g>
                    </g>
                </g>
            </g>
        </g>
    </g>
    <g transform="matrix(0.5,0,0,0.5,-45.3037,-20.8565)">
        <clipPath id="_clip2">
            <rect x="127.178" y="180.286" width="564.748" height="441.197"/>
        </clipPath>
        <g clip-path="url(#_clip2)">
            <g transform="matrix(0.59399,0,0,0.59399,121.005,343.496)">
                <g opacity="0.5">
                    <g>
                        <g transform="matrix(0.866025,-0.5,1,0.57735,0,0)">
                            <rect x="-312" y="280.592" width="300" height="259.808" style="fill:rgb(33,192,181);"/>
                        </g>
                        <g transform="matrix(0.866025,-0.5,1,0.57735,-1.13687e-13,-30)">
                            <rect x="-312" y="280.592" width="300" height="259.808" style="fill:rgb(33,192,181);"/>
                        </g>
                        <g transform="matrix(0.866025,-0.5,5.55112e-17,1.1547,0,0)">
                            <rect x="312" y="514.419" width="300" height="25.981" style="fill:rgb(54,171,161);"/>
                        </g>
                        <g transform="matrix(0.866025,0.5,-5.55112e-17,1.1547,0,0)">
                            <rect x="12" y="244.219" width="300" height="25.981" style="fill:rgb(10,215,198);"/>
                        </g>
                        <g transform="matrix(0.866025,-0.5,1,0.57735,0,0)">
                            <rect x="-282" y="254.611" width="300" height="259.808" style="fill:rgb(0,250,229);"/>
                        </g>
                        <g transform="matrix(0.40883,0.235782,-0.688457,0.397914,457.585,143.57)">
                            <text x="-162px" y="391.785px" style="font-family:'FoundersGrotesk-BoldItalic', 'Founders Grotesk', sans-serif;font-weight:700;font-style:italic;font-size:332.554px;fill:white;">c<tspan x="9.883px " y="391.785px ">s</tspan>s</text>
                        </g>
                    </g>
                </g>
            </g>
            <g transform="matrix(0.59399,0,0,0.59399,333.338,220.906)">
                <g opacity="0.5">
                    <g>
                        <g transform="matrix(0.866025,-0.5,1,0.57735,0,0)">
                            <rect x="-312" y="280.592" width="300" height="259.808" style="fill:rgb(33,192,181);"/>
                        </g>
                        <g transform="matrix(0.866025,-0.5,1,0.57735,-1.13687e-13,-30)">
                            <rect x="-312" y="280.592" width="300" height="259.808" style="fill:rgb(33,192,181);"/>
                        </g>
                        <g transform="matrix(0.866025,-0.5,5.55112e-17,1.1547,0,0)">
                            <rect x="312" y="514.419" width="300" height="25.981" style="fill:rgb(54,171,161);"/>
                        </g>
                        <g transform="matrix(0.866025,0.5,-5.55112e-17,1.1547,0,0)">
                            <rect x="12" y="244.219" width="300" height="25.981" style="fill:rgb(10,215,198);"/>
                        </g>
                        <g transform="matrix(0.866025,-0.5,1,0.57735,0,0)">
                            <rect x="-282" y="254.611" width="300" height="259.808" style="fill:rgb(0,250,229);"/>
                        </g>
                        <g transform="matrix(0.40883,0.235782,-0.688457,0.397914,457.585,143.57)">
                            <text x="-162px" y="391.785px" style="font-family:'FoundersGrotesk-BoldItalic', 'Founders Grotesk', sans-serif;font-weight:700;font-style:italic;font-size:332.554px;fill:white;">c<tspan x="9.883px " y="391.785px ">s</tspan>s</text>
                        </g>
                    </g>
                </g>
            </g>
            <g transform="matrix(0.59399,0,0,0.59399,545.67,98.3157)">
                <g opacity="0.5">
                    <g>
                        <g transform="matrix(0.866025,-0.5,1,0.57735,0,0)">
                            <rect x="-312" y="280.592" width="300" height="259.808" style="fill:rgb(33,192,181);"/>
                        </g>
                        <g transform="matrix(0.866025,-0.5,1,0.57735,-1.13687e-13,-30)">
                            <rect x="-312" y="280.592" width="300" height="259.808" style="fill:rgb(33,192,181);"/>
                        </g>
                        <g transform="matrix(0.866025,0.5,-5.55112e-17,1.1547,0,0)">
                            <rect x="12" y="244.219" width="300" height="25.981" style="fill:rgb(10,215,198);"/>
                        </g>
                        <g transform="matrix(0.866025,-0.5,1,0.57735,0,0)">
                            <rect x="-282" y="254.611" width="300" height="259.808" style="fill:rgb(0,250,229);"/>
                        </g>
                        <g transform="matrix(0.40883,0.235782,-0.688457,0.397914,457.585,143.57)">
                            <text x="-162px" y="391.785px" style="font-family:'FoundersGrotesk-BoldItalic', 'Founders Grotesk', sans-serif;font-weight:700;font-style:italic;font-size:332.554px;fill:white;">c<tspan x="9.883px " y="391.785px ">s</tspan>s</text>
                        </g>
                    </g>
                </g>
            </g>
        </g>
    </g>
</svg>
